<mxfile host="app.diagrams.net" modified="2023-01-15T12:50:27.966Z" agent="5.0 (Macintosh; Intel Mac OS X 10_15_7) AppleWebKit/605.1.15 (KHTML, like Gecko) Version/16.0 Safari/605.1.15" etag="I-fUiLphFBnOcjNHpXT8" version="20.7.4" type="github">
  <diagram id="kgpKYQtTHZ0yAKxKKP6v" name="Page-1">
    <mxGraphModel dx="986" dy="640" grid="1" gridSize="10" guides="1" tooltips="1" connect="1" arrows="1" fold="1" page="1" pageScale="1" pageWidth="850" pageHeight="1100" math="0" shadow="0">
      <root>
        <mxCell id="0" />
        <mxCell id="1" parent="0" />
        <mxCell id="ciiIZ6JUpIaeFWY96VT0-1" value="" style="shape=image;html=1;verticalAlign=top;verticalLabelPosition=bottom;labelBackgroundColor=#ffffff;imageAspect=0;aspect=fixed;image=https://cdn4.iconfinder.com/data/icons/essential-app-2/16/record-round-circle-dot-128.png" vertex="1" parent="1">
          <mxGeometry x="40" y="90" width="40" height="40" as="geometry" />
        </mxCell>
        <mxCell id="ciiIZ6JUpIaeFWY96VT0-2" value="" style="endArrow=classic;html=1;rounded=0;exitX=1;exitY=0.5;exitDx=0;exitDy=0;" edge="1" parent="1" source="ciiIZ6JUpIaeFWY96VT0-1">
          <mxGeometry width="50" height="50" relative="1" as="geometry">
            <mxPoint x="130" y="135" as="sourcePoint" />
            <mxPoint x="210" y="110" as="targetPoint" />
          </mxGeometry>
        </mxCell>
        <mxCell id="ciiIZ6JUpIaeFWY96VT0-5" style="edgeStyle=orthogonalEdgeStyle;rounded=0;orthogonalLoop=1;jettySize=auto;html=1;exitX=1;exitY=0.5;exitDx=0;exitDy=0;entryX=0;entryY=0.5;entryDx=0;entryDy=0;" edge="1" parent="1" source="ciiIZ6JUpIaeFWY96VT0-3" target="ciiIZ6JUpIaeFWY96VT0-4">
          <mxGeometry relative="1" as="geometry" />
        </mxCell>
        <mxCell id="ciiIZ6JUpIaeFWY96VT0-3" value="Shippment order placed" style="rounded=0;whiteSpace=wrap;html=1;" vertex="1" parent="1">
          <mxGeometry x="210" y="80" width="120" height="60" as="geometry" />
        </mxCell>
        <mxCell id="ciiIZ6JUpIaeFWY96VT0-7" style="edgeStyle=orthogonalEdgeStyle;rounded=0;orthogonalLoop=1;jettySize=auto;html=1;startArrow=none;" edge="1" parent="1" source="ciiIZ6JUpIaeFWY96VT0-9" target="ciiIZ6JUpIaeFWY96VT0-8">
          <mxGeometry relative="1" as="geometry">
            <mxPoint x="440" y="250" as="targetPoint" />
          </mxGeometry>
        </mxCell>
        <mxCell id="ciiIZ6JUpIaeFWY96VT0-12" style="edgeStyle=orthogonalEdgeStyle;rounded=0;orthogonalLoop=1;jettySize=auto;html=1;entryX=1;entryY=0.5;entryDx=0;entryDy=0;" edge="1" parent="1" source="ciiIZ6JUpIaeFWY96VT0-4" target="ciiIZ6JUpIaeFWY96VT0-9">
          <mxGeometry relative="1" as="geometry">
            <Array as="points">
              <mxPoint x="490" y="200" />
              <mxPoint x="385" y="200" />
            </Array>
          </mxGeometry>
        </mxCell>
        <mxCell id="ciiIZ6JUpIaeFWY96VT0-16" style="edgeStyle=orthogonalEdgeStyle;rounded=0;orthogonalLoop=1;jettySize=auto;html=1;entryX=0;entryY=0.5;entryDx=0;entryDy=0;" edge="1" parent="1" source="ciiIZ6JUpIaeFWY96VT0-4" target="ciiIZ6JUpIaeFWY96VT0-15">
          <mxGeometry relative="1" as="geometry" />
        </mxCell>
        <mxCell id="ciiIZ6JUpIaeFWY96VT0-4" value="Order validation" style="whiteSpace=wrap;html=1;rounded=0;" vertex="1" parent="1">
          <mxGeometry x="430" y="80" width="120" height="60" as="geometry" />
        </mxCell>
        <mxCell id="ciiIZ6JUpIaeFWY96VT0-6" value="&amp;nbsp; &amp;nbsp; &amp;nbsp; Submit to &lt;br&gt;manufacturer&lt;br&gt;&amp;nbsp;for validation&lt;br&gt;" style="text;html=1;align=center;verticalAlign=middle;resizable=0;points=[];autosize=1;strokeColor=none;fillColor=none;" vertex="1" parent="1">
          <mxGeometry x="330" y="60" width="90" height="60" as="geometry" />
        </mxCell>
        <mxCell id="ciiIZ6JUpIaeFWY96VT0-8" value="" style="shape=image;html=1;verticalAlign=top;verticalLabelPosition=bottom;labelBackgroundColor=#ffffff;imageAspect=0;aspect=fixed;image=https://cdn4.iconfinder.com/data/icons/ionicons/512/icon-ios7-circle-filled-128.png" vertex="1" parent="1">
          <mxGeometry x="300" y="300" width="50" height="50" as="geometry" />
        </mxCell>
        <mxCell id="ciiIZ6JUpIaeFWY96VT0-13" style="edgeStyle=orthogonalEdgeStyle;rounded=0;orthogonalLoop=1;jettySize=auto;html=1;" edge="1" parent="1" source="ciiIZ6JUpIaeFWY96VT0-9">
          <mxGeometry relative="1" as="geometry">
            <mxPoint x="200" y="120" as="targetPoint" />
          </mxGeometry>
        </mxCell>
        <mxCell id="ciiIZ6JUpIaeFWY96VT0-9" value="Validation failed" style="rounded=1;whiteSpace=wrap;html=1;" vertex="1" parent="1">
          <mxGeometry x="250" y="190" width="130" height="60" as="geometry" />
        </mxCell>
        <mxCell id="ciiIZ6JUpIaeFWY96VT0-14" value="Admin reviews &lt;br&gt;the issue&amp;nbsp;" style="text;html=1;align=center;verticalAlign=middle;resizable=0;points=[];autosize=1;strokeColor=none;fillColor=none;" vertex="1" parent="1">
          <mxGeometry x="110" y="170" width="100" height="40" as="geometry" />
        </mxCell>
        <mxCell id="ciiIZ6JUpIaeFWY96VT0-19" style="edgeStyle=orthogonalEdgeStyle;rounded=0;orthogonalLoop=1;jettySize=auto;html=1;entryX=0;entryY=0.5;entryDx=0;entryDy=0;" edge="1" parent="1" source="ciiIZ6JUpIaeFWY96VT0-15" target="ciiIZ6JUpIaeFWY96VT0-18">
          <mxGeometry relative="1" as="geometry" />
        </mxCell>
        <mxCell id="ciiIZ6JUpIaeFWY96VT0-15" value="Order preparation" style="rounded=0;whiteSpace=wrap;html=1;" vertex="1" parent="1">
          <mxGeometry x="640" y="80" width="120" height="60" as="geometry" />
        </mxCell>
        <mxCell id="ciiIZ6JUpIaeFWY96VT0-17" value="Validation &lt;br&gt;succeeded" style="text;html=1;align=center;verticalAlign=middle;resizable=0;points=[];autosize=1;strokeColor=none;fillColor=none;" vertex="1" parent="1">
          <mxGeometry x="560" y="70" width="80" height="40" as="geometry" />
        </mxCell>
        <mxCell id="ciiIZ6JUpIaeFWY96VT0-22" style="edgeStyle=orthogonalEdgeStyle;rounded=0;orthogonalLoop=1;jettySize=auto;html=1;exitX=1;exitY=0.5;exitDx=0;exitDy=0;entryX=0;entryY=0.5;entryDx=0;entryDy=0;" edge="1" parent="1" source="ciiIZ6JUpIaeFWY96VT0-18" target="ciiIZ6JUpIaeFWY96VT0-21">
          <mxGeometry relative="1" as="geometry" />
        </mxCell>
        <mxCell id="ciiIZ6JUpIaeFWY96VT0-18" value="Shipping" style="rounded=0;whiteSpace=wrap;html=1;" vertex="1" parent="1">
          <mxGeometry x="870" y="80" width="120" height="60" as="geometry" />
        </mxCell>
        <mxCell id="ciiIZ6JUpIaeFWY96VT0-23" style="edgeStyle=orthogonalEdgeStyle;rounded=0;orthogonalLoop=1;jettySize=auto;html=1;" edge="1" parent="1" source="ciiIZ6JUpIaeFWY96VT0-21" target="ciiIZ6JUpIaeFWY96VT0-24">
          <mxGeometry relative="1" as="geometry">
            <mxPoint x="1350" y="110" as="targetPoint" />
          </mxGeometry>
        </mxCell>
        <mxCell id="ciiIZ6JUpIaeFWY96VT0-21" value="Order delivered" style="rounded=0;whiteSpace=wrap;html=1;" vertex="1" parent="1">
          <mxGeometry x="1120" y="80" width="120" height="60" as="geometry" />
        </mxCell>
        <mxCell id="ciiIZ6JUpIaeFWY96VT0-27" style="edgeStyle=orthogonalEdgeStyle;rounded=0;orthogonalLoop=1;jettySize=auto;html=1;entryX=0;entryY=0.5;entryDx=0;entryDy=0;" edge="1" parent="1" source="ciiIZ6JUpIaeFWY96VT0-24" target="ciiIZ6JUpIaeFWY96VT0-26">
          <mxGeometry relative="1" as="geometry" />
        </mxCell>
        <mxCell id="ciiIZ6JUpIaeFWY96VT0-24" value="Order closed" style="rounded=0;whiteSpace=wrap;html=1;" vertex="1" parent="1">
          <mxGeometry x="1340" y="80" width="120" height="60" as="geometry" />
        </mxCell>
        <mxCell id="ciiIZ6JUpIaeFWY96VT0-25" value="Order checked&lt;br&gt;&amp;nbsp;and validated" style="text;html=1;align=center;verticalAlign=middle;resizable=0;points=[];autosize=1;strokeColor=none;fillColor=none;" vertex="1" parent="1">
          <mxGeometry x="1240" y="70" width="100" height="40" as="geometry" />
        </mxCell>
        <mxCell id="ciiIZ6JUpIaeFWY96VT0-26" value="" style="shape=image;html=1;verticalAlign=top;verticalLabelPosition=bottom;labelBackgroundColor=#ffffff;imageAspect=0;aspect=fixed;image=https://cdn4.iconfinder.com/data/icons/ionicons/512/icon-ios7-circle-filled-128.png" vertex="1" parent="1">
          <mxGeometry x="1540" y="82" width="48" height="48" as="geometry" />
        </mxCell>
      </root>
    </mxGraphModel>
  </diagram>
</mxfile>
